<?xml version="1.0" encoding="UTF-8"?>
<svg id="Layer_1" data-name="Layer 1" xmlns="http://www.w3.org/2000/svg" xmlns:xlink="http://www.w3.org/1999/xlink" viewBox="0 0 100 100">
  <defs>
    <style>
      .cls-1 {
        fill: #fff;
      }

      .cls-2 {
        fill: url(#radial-gradient);
      }

      .cls-3 {
        fill-rule: evenodd;
      }
    </style>
    <radialGradient id="radial-gradient" cx="50" cy="50" fx="50" fy="50" r="50" gradientUnits="userSpaceOnUse">
      <stop offset=".25" stop-color="#96ff00"/>
      <stop offset=".35" stop-color="#8dfc00"/>
      <stop offset=".51" stop-color="#75f500"/>
      <stop offset=".71" stop-color="#4fea00"/>
      <stop offset=".94" stop-color="#1adb00"/>
      <stop offset="1" stop-color="#0bd700"/>
    </radialGradient>
  </defs>
  <g>
    <path class="cls-2" d="M85.83,15.13C76.5,5.54,64.02.17,50.68,0c-.22,0-.44,0-.65,0C22.45,0,.01,22.41,0,49.97c0,13.29,5.13,25.8,14.48,35.23,9.33,9.42,21.78,14.68,35.03,14.8,0,0,.47,0,.47,0,13.28,0,25.78-5.13,35.19-14.45,9.35-9.26,14.62-21.6,14.82-34.76.19-13.43-4.84-26.09-14.16-35.67Z"/>
    <path class="cls-3" d="M50.64,2.94C24.25,2.6,2.95,23.87,2.93,49.97c-.01,25.88,20.82,46.86,46.6,47.09,26.17.24,47.13-20.69,47.53-46.31.37-26.42-20.73-47.49-46.42-47.81ZM94.44,50.71c-.38,24.19-20.17,43.95-44.88,43.72-24.34-.22-44.01-20.03-44-44.47.01-24.64,20.13-44.72,45.05-44.4,24.26.31,44.18,20.2,43.83,45.15Z"/>
  </g>
  <path d="M50,10.87c-21.61,0-39.12,17.52-39.12,39.12s17.52,39.13,39.12,39.13,39.13-17.52,39.13-39.13S71.61,10.87,50,10.87ZM76.82,62.81v4.45h-6.95v-6.24h4.27v1.79h2.68ZM21.26,71.13c-.35-.47-.68-.96-1-1.45h1v1.45ZM20.98,67.26v-4.7h2.93v4.7h-2.93ZM18.56,66.82c-.98-1.84-1.8-3.78-2.45-5.8h2.45v5.8ZM76.49,25.49c.11.12.22.23.33.34v4.19h-6.95v-10.1c1.51.98,2.94,2.08,4.27,3.27v2.3h2.35ZM60.73,62.56v4.7h-2.92v-4.7h2.92ZM33.21,61.03h4.24v1.79h2.68v4.45h-6.92v-6.24ZM58.08,32.45v6.52h-6.57v-6.52h6.57ZM57.8,30.03v-4.79h2.92v4.79h-2.92ZM49.09,38.97h-3.86v-6.52h3.86v6.52ZM42.81,38.97h-2.93v-6.52h2.93v6.52ZM37.46,38.97h-4.24v-6.52h4.24v6.52ZM39.88,69.68h2.93v9.37h-2.93v-9.37ZM42.53,67.26v-4.45h2.7v-1.79h3.86v6.24h-6.56ZM51.51,61.03h3.87v6.24h-3.87v-6.24ZM63.15,61.03h4.29v6.24h-4.29v-6.24ZM60.48,38.97v-6.52h6.97v6.52h-6.97ZM74.14,38.97h-4.27v-6.52h4.27v6.52ZM79.49,38.97h-2.93v-6.52h2.93v6.52ZM79.21,30.03v-1.26c.3.41.6.83.89,1.26h-.89ZM67.45,30.03h-4.29v-7.21h-2.68v-7.24c2.44.72,4.78,1.69,6.97,2.89v11.56ZM58.08,22.82h-2.7v7.21h-3.87v-15.9c2.25.08,4.45.36,6.57.83v7.86ZM49.09,30.03h-6.56v-4.54h2.7v-11.03c1.27-.18,2.55-.29,3.86-.33v15.9ZM42.81,23.07h-2.93v-7.43c.96-.29,1.94-.54,2.93-.75v8.19ZM40.13,25.49v4.54h-6.92v-11.62c1.36-.74,2.78-1.38,4.24-1.94v9.03h2.68ZM30.79,30.03h-4.45v-6.78c1.39-1.25,2.88-2.38,4.45-3.4v10.17ZM30.79,32.45v6.52h-7.13v-6.52h7.13ZM21.26,38.97h-5.15c.74-2.28,1.7-4.47,2.85-6.52h2.3v6.52ZM26.33,61.03h4.45v6.24h-4.45v-6.24ZM33.21,69.68h4.24v11.79h2.68v2.96c-2.42-.71-4.74-1.66-6.92-2.84v-11.91ZM42.53,81.48h2.7v-11.79h3.86v16.18c-2.25-.07-4.44-.35-6.56-.82v-3.57ZM51.51,69.68h6.57v9.12h-2.7v6.73c-1.27.18-2.56.29-3.87.34v-16.18ZM57.8,81.22h2.92v3.12c-.96.29-1.93.54-2.92.75v-3.88ZM60.48,78.8v-9.12h6.97v11.84c-1.38.75-2.81,1.41-4.29,1.98v-4.7h-2.68ZM69.87,69.68h4.27v7.11c-1.34,1.19-2.77,2.28-4.27,3.27v-10.38ZM79.21,62.81h2.7v-1.79h2.52c-.7,2.18-1.6,4.27-2.69,6.24h-2.53v-4.45ZM81.91,38.97v-5.93c1.01,1.88,1.86,3.87,2.52,5.93h-2.52ZM23.91,25.64v4.39h-2.93v-.77c.9-1.27,1.88-2.48,2.93-3.62ZM23.66,74.09v-4.4h7.13v10.46c-2.63-1.71-5.03-3.74-7.13-6.05ZM76.56,74.43v-4.74h2.93v1.15c-.9,1.26-1.88,2.46-2.93,3.59Z"/>
  <path class="cls-1" d="M82.44,49.99c0,2.32,0,4.64,0,6.96,0,.3-.07.38-.37.38-.83-.03-1.67-.02-2.49,0-.22,0-.29-.06-.29-.28.02-.58.01-1.18,0-1.77,0-.58-.32-.88-.9-.88h-4.99c-.72,0-.99.27-1,1,0,.55,0,1.11,0,1.66,0,.2-.06.27-.26.26-.85-.01-1.71-.02-2.56,0-.26,0-.32-.07-.31-.32,0-1.97,0-3.94,0-5.92,0-2.68,0-5.37-.01-8.05,0-.3.08-.38.38-.38.79.03,1.59.03,2.38,0,.3,0,.38.07.38.38-.01,2.35,0,4.71,0,7.07,0,.84.25,1.08,1.11,1.08h4.69c.85,0,1.08-.24,1.08-1.09,0-2.35.01-4.69,0-7.04,0-.34.1-.39.4-.39.79.02,1.59.02,2.38,0,.27,0,.36.05.36.35-.02,2.32-.01,4.64-.01,6.97h0Z"/>
  <path class="cls-1" d="M67.45,54.92c-.69,1.37-1.87,2.04-3.33,2.29-.44.08-.88.1-1.33.1-1.09,0-2.19,0-3.29,0-1.34,0-2.69,0-4.04,0-.22,0-.31-.04-.31-.29.01-.83.02-1.66,0-2.49,0-.29.11-.33.36-.33,2.42,0,4.84,0,7.26,0,.41,0,.82,0,1.21-.17.52-.23.74-.65.74-1.21,0-.54-.21-.95-.72-1.18-.43-.19-.88-.2-1.34-.21-1.14,0-2.29,0-3.43,0-.78,0-1.53-.18-2.21-.55-1.18-.64-1.88-1.63-2.06-2.96-.21-1.5,0-2.91,1.16-4.02.83-.81,1.88-1.18,3.01-1.2,2.62-.04,5.24-.02,7.87-.04.2,0,.24.07.24.25-.01.84-.01,1.68,0,2.52,0,.25-.06.32-.32.32-2.4-.01-4.81,0-7.22,0-.27,0-.53.01-.79.09-.43.12-.75.38-.83.85-.08.49-.08.97.33,1.34.32.27.71.34,1.11.34,1.29,0,2.58,0,3.86.03.94.03,1.83.25,2.64.76,1.14.72,1.72,1.79,1.84,3.1.08.92.03,1.83-.39,2.68Z"/>
  <path class="cls-1" d="M54.38,56.27c-1.26-3.83-2.52-7.66-3.79-11.48-.24-.7-.6-1.31-1.2-1.75-.97-.71-2.06-.76-3.18-.55-1.27.24-2,1.11-2.4,2.26-.9,2.66-1.77,5.33-2.66,8-.25.76-.5,1.52-.75,2.28-.03,0-.05-.01-.08-.01v-.29c0-.57.1-.5-.53-.5-1.53,0-3.06,0-4.58-.03-.82-.01-1.2-.37-1.33-1.18-.01-.12-.03-.24-.03-.36,0-3.22,0-6.43,0-9.64,0-.3-.09-.36-.36-.35-.81.01-1.63.01-2.45,0-.24,0-.33.04-.32.32.01,3.2,0,6.4,0,9.6,0,.5.01,1.01.1,1.51.17,1.02.52,1.96,1.46,2.54.66.41,1.4.6,2.16.63,2.77.11,5.54.02,8.3.05.2,0,.27-.08.32-.25.22-.69.46-1.37.65-2.06.07-.23.17-.27.38-.26,2.07,0,4.14,0,6.21,0,.23,0,.31.09.36.28.21.67.45,1.35.65,2.03.06.2.16.27.38.27.93-.01,1.85,0,2.78,0,.08,0,.17.02.24-.07-.11-.32-.22-.65-.34-.98ZM49.35,51.79c-.72,0-1.44,0-2.17,0s-1.42,0-2.13,0c-.18,0-.29,0-.2-.25.61-1.87,1.21-3.75,1.82-5.62.08-.24.2-.44.5-.45.29,0,.47.16.55.43.62,1.88,1.22,3.77,1.84,5.65.08.23-.03.24-.2.24Z"/>
  <path class="cls-1" d="M21.28,47.26c-.06,1.84-.06,3.68,0,5.52.03.86.58,1.39,1.47,1.41,1.32.03,2.65.02,3.97.03.71,0,1.42,0,2.13,0,.23,0,.31.06.31.3-.01.83-.02,1.66,0,2.49,0,.25-.06.32-.32.32-1.12-.01-2.24,0-3.35,0-.95,0-1.9.01-2.86,0-2.79-.03-4.47-1.68-4.51-4.47-.03-1.92-.02-3.85,0-5.77.03-1.49.51-2.78,1.8-3.66.8-.55,1.72-.73,2.67-.74,2.05-.01,4.11,0,6.17,0,.32,0,.41.08.4.4-.03.77-.02,1.54,0,2.31,0,.29-.06.39-.37.38-1.88-.01-3.75,0-5.63,0-.16,0-.32,0-.47.03-.9.12-1.38.57-1.41,1.48Z"/>
</svg>